<svg width="128" height="128" viewBox="0 0 128 128" fill="none" xmlns="http://www.w3.org/2000/svg">
<path d="M64 32C60.0444 32 56.1776 33.173 52.8886 35.3706C49.5996 37.5682 47.0362 40.6918 45.5224 44.3463C44.0087 48.0009 43.6126 52.0222 44.3843 55.9018C45.156 59.7814 47.0608 63.3451 49.8579 66.1421C52.6549 68.9392 56.2186 70.844 60.0982 71.6157C63.9778 72.3874 67.9992 71.9913 71.6537 70.4776C75.3082 68.9638 78.4318 66.4004 80.6294 63.1114C82.827 59.8224 84 55.9556 84 52C84 46.6957 81.8929 41.6086 78.1422 37.8579C74.3914 34.1071 69.3043 32 64 32Z" fill="#07BEB8"/>
<path d="M64 8C52.9243 8 42.0972 11.2843 32.8881 17.4377C23.6789 23.5911 16.5013 32.3371 12.2628 42.5697C8.02426 52.8024 6.91528 64.0621 9.07605 74.9251C11.2368 85.788 16.5703 95.7662 24.402 103.598C32.2338 111.43 42.212 116.763 53.075 118.924C63.9379 121.085 75.1976 119.976 85.4303 115.737C95.663 111.499 104.409 104.321 110.562 95.1119C116.716 85.9028 120 75.0758 120 64C119.983 49.1531 114.078 34.9191 103.579 24.4207C93.0809 13.9224 78.847 8.01694 64 8ZM95.968 99.704C95.8883 94.4573 93.7507 89.452 90.0157 85.7663C86.2807 82.0807 81.2473 80.0099 76 80H52C46.7528 80.0099 41.7194 82.0807 37.9844 85.7663C34.2494 89.452 32.1117 94.4573 32.032 99.704C24.7783 93.227 19.6629 84.6995 17.3634 75.2507C15.0638 65.8018 15.6884 55.8774 19.1546 46.7914C22.6207 37.7055 28.7649 29.8867 36.7735 24.3703C44.7821 18.8539 54.2774 15.9001 64.002 15.9001C73.7267 15.9001 83.2219 18.8539 91.2305 24.3703C99.2391 29.8867 105.383 37.7055 108.849 46.7914C112.316 55.8774 112.94 65.8018 110.641 75.2507C108.341 84.6995 103.226 93.227 95.972 99.704H95.968Z" fill="#07BEB8"/>
</svg>
