<svg width="30" height="30" viewBox="0 0 30 30" fill="none" xmlns="http://www.w3.org/2000/svg">
<path fill-rule="evenodd" clip-rule="evenodd" d="M9.2576 7.03939C9.04758 6.78917 8.79821 6.59066 8.52374 6.45518C8.24928 6.31969 7.95508 6.24989 7.65795 6.24976C7.36082 6.24962 7.06658 6.31916 6.79202 6.4544C6.51747 6.58964 6.26798 6.78793 6.0578 7.03796L5.6354 7.54081C5.22697 7.40236 4.7948 7.39699 4.38403 7.52527C3.97325 7.65356 3.59895 7.91078 3.3002 8.27008C2.85157 8.80958 2.59992 9.53805 2.59992 10.2972C2.59992 11.0563 2.85157 11.7848 3.3002 12.3243L3.8 12.9236V20.5356H2V21.9641H3.23C2.93203 22.3117 2.72776 22.757 2.64325 23.2433C2.55873 23.7297 2.5978 24.2349 2.75548 24.6947C2.91315 25.1545 3.18229 25.5479 3.52855 25.8249C3.87482 26.1018 4.28253 26.2498 4.6997 26.2498C5.11687 26.2498 5.52458 26.1018 5.87085 25.8249C6.21711 25.5479 6.48625 25.1545 6.64392 24.6947C6.8016 24.2349 6.84067 23.7297 6.75615 23.2433C6.67164 22.757 6.46737 22.3117 6.1694 21.9641H21.8306C21.5326 22.3117 21.3284 22.757 21.2438 23.2433C21.1593 23.7297 21.1984 24.2349 21.3561 24.6947C21.5138 25.1545 21.7829 25.5479 22.1292 25.8249C22.4754 26.1018 22.8831 26.2498 23.3003 26.2498C23.7175 26.2498 24.1252 26.1018 24.4714 25.8249C24.8177 25.5479 25.0868 25.1545 25.2445 24.6947C25.4022 24.2349 25.4413 23.7297 25.3568 23.2433C25.2722 22.757 25.068 22.3117 24.77 21.9641H26V20.5356H23.6V18.312C24.1152 18.1585 24.5724 17.804 24.8987 17.3051C25.2249 16.8061 25.4014 16.1915 25.4 15.5592C25.4 13.995 24.3434 12.7257 23.0396 12.7257H10.466C10.4417 12.7258 10.4177 12.7202 10.3952 12.7091C10.3728 12.6981 10.3524 12.6819 10.3352 12.6614L10.1156 12.3971L10.337 12.135C10.5472 11.885 10.714 11.5881 10.8278 11.2613C10.9416 10.9346 11.0002 10.5843 11.0002 10.2305C11.0003 9.8768 10.9418 9.52651 10.8281 9.19969C10.7144 8.87286 10.5477 8.57591 10.3376 8.32579L9.2576 7.0401V7.03939ZM9.2696 11.3843L9.4886 11.1243C9.58729 11.0069 9.66558 10.8675 9.719 10.7141C9.77241 10.5606 9.79991 10.3961 9.79991 10.23C9.79991 10.0639 9.77241 9.89948 9.719 9.74603C9.66558 9.59259 9.58729 9.45318 9.4886 9.33577L8.4086 8.05008C8.2095 7.81279 7.93938 7.67934 7.65765 7.67907C7.37591 7.6788 7.10562 7.81174 6.9062 8.04865L6.6962 8.29865L9.2702 11.3843H9.2696ZM22.4 20.5356H5V14.3614L8.165 18.1549C8.2922 18.307 8.4638 18.3928 8.6432 18.3928H22.4V20.5356Z" fill="black"/>
</svg>
